<svg width="160" height="211" viewBox="0 0 160 211" fill="none" xmlns="http://www.w3.org/2000/svg">
<g id="Group">
<g id="Group_2">
<path id="Vector" d="M105.272 4.62249L37.304 153.54L40.1241 154.828L108.092 5.90961L105.272 4.62249Z" fill="#00664F"/>
</g>
<g id="Group_3">
<path id="Vector_2" d="M36.7749 158.346C34.4749 157.346 33.4749 154.546 34.4749 152.246C35.4749 149.946 38.2749 148.946 40.5749 149.946C79.3749 167.646 125.275 150.546 142.975 111.746C160.675 72.9463 143.575 27.0463 104.775 9.34627C102.475 8.34627 101.475 5.54627 102.475 3.24627C103.475 0.946268 106.275 -0.0537354 108.575 0.946265C151.875 20.7463 171.075 72.0463 151.275 115.446C131.475 159.046 80.1749 178.146 36.7749 158.346Z" fill="#00664F"/>
</g>
<path id="Vector_3" d="M72.6749 152.146C112.66 152.146 145.075 119.732 145.075 79.7463C145.075 39.7608 112.66 7.34625 72.6749 7.34625C32.6895 7.34625 0.274937 39.7608 0.274937 79.7463C0.274937 119.732 32.6895 152.146 72.6749 152.146Z" fill="#B0DDC9"/>
<path id="Vector_4" d="M138.575 109.846C136.075 115.346 132.975 120.346 129.375 124.946C120.775 128.546 111.175 129.746 101.975 128.146C100.775 127.946 99.5749 127.646 98.6749 126.846C95.9749 124.446 98.2749 120.146 98.2749 116.546C98.2749 113.546 96.4749 110.846 94.7749 108.346C90.9749 102.746 87.1749 95.8463 89.4749 89.3463C91.7749 82.8463 99.4749 79.3463 101.475 72.7463C103.275 66.4463 99.1749 59.9463 99.0749 53.3463C98.9749 48.2463 101.475 43.3463 104.975 39.7463C108.575 36.1463 113.175 33.7463 117.975 32.0463C120.475 31.1463 123.275 30.5463 125.975 30.5463C145.075 51.4463 151.075 82.5463 138.575 109.846ZM50.6749 147.346C54.3749 145.546 57.4749 142.146 58.1749 138.146C58.8749 133.746 56.6749 129.446 53.9749 125.946C51.1749 122.446 47.8749 119.446 45.5749 115.646C44.5749 114.046 43.8749 112.246 43.8749 110.346C43.9749 105.146 49.5749 101.546 50.1749 96.4463C50.7749 91.9463 47.1749 87.8463 43.1749 85.8463C39.0749 83.8463 34.4749 83.3463 30.0749 82.1463C25.6749 80.9463 21.2749 78.5463 19.4749 74.3463C17.2749 69.0463 20.0749 62.7463 17.0749 57.7463C15.1749 54.5463 10.1749 52.4463 5.87494 51.7463C-9.22507 87.6463 6.87493 129.346 42.5749 145.646C44.6749 146.546 46.6749 147.446 48.7749 148.146C49.4749 147.946 50.0749 147.646 50.6749 147.346ZM30.5749 20.8463C30.7749 21.6463 31.0749 22.4463 31.4749 23.1463C34.9749 30.5463 42.4749 36.1463 43.5749 44.2463C43.8749 46.4463 43.7749 48.9463 45.1749 50.6463C45.8749 51.5463 46.9749 52.0463 48.0749 52.5463C57.1749 56.3463 68.5749 53.6463 74.8749 46.0463C80.9749 38.6463 82.0749 28.3463 86.8749 20.0463C88.2749 17.6463 89.9749 15.3463 89.9749 12.5463C89.9749 11.3463 89.5749 10.2463 88.9749 9.24627C68.3749 4.44627 47.1749 8.94627 30.5749 20.8463Z" fill="#2EA889"/>
<path id="Vector_5" d="M79.7749 164.446H65.5749V198.246H79.7749V164.446Z" fill="#00664F"/>
<path id="Vector_6" d="M128.775 210.346H16.5749C12.8749 210.346 9.97493 207.346 9.97493 203.746C9.97493 200.046 12.9749 197.146 16.5749 197.146H128.675C132.375 197.146 135.275 200.146 135.275 203.746C135.375 207.346 132.375 210.346 128.775 210.346Z" fill="#00664F"/>
</g>
</svg>
