<?xml version="1.0" encoding="UTF-8"?>
<svg version="1.1" xmlns="http://www.w3.org/2000/svg" width="512" height="512">
<path d="M0 0 C1.47919922 1.2684375 1.47919922 1.2684375 2.98828125 2.5625 C3.50471191 3.00207031 4.02114258 3.44164062 4.55322266 3.89453125 C11.84379994 10.15068041 18.1767847 16.89297613 23.98828125 24.5625 C24.76558594 25.55121094 25.54289062 26.53992188 26.34375 27.55859375 C47.23811867 54.81211811 59.97545538 91.28248199 60.19140625 125.69921875 C60.19846588 126.45241394 60.20552551 127.20560913 60.21279907 127.98162842 C60.41583294 156.03059445 57.48315651 181.44735644 47.23828125 207.8125 C46.96411377 208.53058838 46.68994629 209.24867676 46.4074707 209.98852539 C44.0048858 215.87716296 40.93463575 221.35843227 37.83105469 226.89746094 C37.36545135 227.73179657 36.89984802 228.5661322 36.4201355 229.42575073 C35.27778727 231.47223672 34.13379498 233.51778475 32.98828125 235.5625 C34.80326111 235.56796844 34.80326111 235.56796844 36.65490723 235.57354736 C48.07230401 235.61053005 59.48943189 235.66833885 70.90662384 235.74640274 C76.77597655 235.78586817 82.64517944 235.81806142 88.51464844 235.83349609 C94.181773 235.84866854 99.84848564 235.8831253 105.51542664 235.93080902 C107.6746614 235.94561661 109.83395498 235.95354065 111.99324036 235.95438385 C115.0239322 235.95675705 118.05348893 235.98386625 121.08398438 236.01660156 C121.97159454 236.0115712 122.85920471 236.00654083 123.77371216 236.00135803 C129.57816025 236.09800439 134.1821171 237.17768919 138.98828125 240.5625 C143.15742782 245.80065851 144.53555549 249.88575422 143.98828125 256.5625 C142.17835513 261.83489347 139.75375743 265.50770757 134.98828125 268.5625 C131.85509622 269.60689501 129.65491342 269.69588311 126.3664093 269.70967102 C124.61059288 269.72040398 124.61059288 269.72040398 122.81930542 269.73135376 C121.53355621 269.73404266 120.24780701 269.73673157 118.9230957 269.73950195 C117.55633878 269.74576802 116.18958356 269.75241495 114.8228302 269.75941467 C110.33241967 269.78044373 105.84200886 269.79081726 101.3515625 269.80078125 C99.80426707 269.8048295 98.25697181 269.80894644 96.70967674 269.81313133 C89.43853373 269.83218196 82.16740084 269.84641219 74.89623767 269.8547433 C66.51114338 269.86450996 58.12631348 269.89081489 49.74131233 269.93124419 C43.25540329 269.96144017 36.76956987 269.97621554 30.28359193 269.97952431 C26.41222697 269.98187122 22.54114448 269.99078407 18.66985512 270.01598549 C15.02458775 270.03933192 11.37978751 270.04347344 7.73446465 270.03322411 C5.76790227 270.03249569 3.80136327 270.05154153 1.8348999 270.07128906 C-5.25192879 270.02974944 -10.03104608 269.48170919 -16.01171875 265.5625 C-20.08490574 260.57284594 -20.60233166 256.44952741 -20.32421875 250.0703125 C-19.7209958 245.22944834 -17.36380386 242.88062223 -14.01171875 239.625 C5.24585072 220.85599466 16.75983176 196.37040627 22.98828125 170.5625 C23.16762207 169.8514209 23.34696289 169.1403418 23.53173828 168.40771484 C28.64035403 147.41013729 28.1012508 121.48598545 22.98828125 100.5625 C22.70621826 99.38469971 22.70621826 99.38469971 22.41845703 98.18310547 C16.58716798 74.73269483 5.69910165 54.02606006 -11.01171875 36.5625 C-11.63433594 35.87671875 -12.25695312 35.1909375 -12.8984375 34.484375 C-27.6378357 18.78707042 -49.59743354 8.1601262 -71.140625 7.359375 C-98.15286422 6.88020875 -120.47576244 17.24466028 -140.01171875 35.5625 C-161.5893826 56.55883218 -172.94172485 86.22209622 -177.01171875 115.5625 C-177.14320313 116.49835938 -177.2746875 117.43421875 -177.41015625 118.3984375 C-181.6395055 155.54812682 -172.56809377 196.17425172 -149.2734375 225.8515625 C-145.64212873 230.20411567 -141.85369557 234.39615366 -138.01171875 238.5625 C-132.97972821 244.1536006 -130.67797285 247.70787814 -130.80078125 255.28515625 C-131.25211737 260.15791469 -133.43076945 263.24835024 -137.01171875 266.375 C-140.93423796 269.23517025 -143.49904577 269.68818304 -148.22271729 269.70967102 C-149.8418679 269.72040398 -149.8418679 269.72040398 -151.49372864 269.73135376 C-153.27042183 269.73538712 -153.27042183 269.73538712 -155.08300781 269.73950195 C-156.33041245 269.74607315 -157.57781708 269.75264435 -158.86302185 269.75941467 C-163.00113158 269.77916494 -167.13920254 269.79081577 -171.27734375 269.80078125 C-172.70331593 269.80482963 -174.12928792 269.80894658 -175.5552597 269.81313133 C-182.25562281 269.83217941 -188.95597494 269.8464108 -195.65635991 269.8547433 C-203.38379837 269.86451235 -211.11095013 269.89082451 -218.83828759 269.93124419 C-224.81548052 269.9614334 -230.7925914 269.97621485 -236.76985908 269.97952431 C-240.33771221 269.98187178 -243.90525893 269.99079196 -247.47303009 270.01598549 C-251.45639659 270.04365948 -255.43938779 270.03942644 -259.42285156 270.0324707 C-261.18739937 270.05168579 -261.18739937 270.05168579 -262.9875946 270.07128906 C-269.55231596 270.02949601 -273.71518816 269.5641568 -279.01171875 265.5625 C-283.12550794 260.2578771 -284.56196922 256.27555576 -284.01171875 249.5625 C-282.11268048 243.74601706 -279.50539682 240.48466919 -274.01171875 237.5625 C-270.21742365 236.29773497 -266.63993326 236.38553544 -262.68481445 236.35717773 C-261.83581573 236.34727814 -260.98681702 236.33737854 -260.11209106 236.32717896 C-257.30392248 236.29557417 -254.49573697 236.27081052 -251.6875 236.24609375 C-249.74122171 236.22552334 -247.79494787 236.20452685 -245.84867859 236.18312073 C-240.72443247 236.12790901 -235.6001461 236.07849573 -230.47583008 236.03027344 C-225.24752212 235.98005187 -220.01927267 235.92436922 -214.79101562 235.86914062 C-204.53129998 235.76157005 -194.27153354 235.66012259 -184.01171875 235.5625 C-184.30147457 235.07525829 -184.59123039 234.58801659 -184.88976669 234.08600998 C-186.21373466 231.85660264 -187.5341374 229.62510365 -188.85449219 227.39355469 C-189.31036713 226.62711639 -189.76624207 225.8606781 -190.2359314 225.0710144 C-193.35072341 219.79898378 -196.10555989 214.5542313 -198.26171875 208.8125 C-198.57906982 207.99088379 -198.8964209 207.16926758 -199.22338867 206.32275391 C-204.94237224 191.13821327 -208.9313979 175.64976201 -211.01171875 159.5625 C-211.14320313 158.58023438 -211.2746875 157.59796875 -211.41015625 156.5859375 C-216.40058063 109.78384942 -204.02591348 60.11544886 -174.35546875 23.23046875 C-152.56517557 -3.33572629 -123.88335255 -22.15488581 -89.2277832 -26.23901367 C-57.04994214 -29.12108757 -25.21613366 -20.50613156 0 0 Z " fill="#000000" transform="translate(326.01171875,134.4375)"/>
</svg>
